<svg xmlns="http://www.w3.org/2000/svg" fill="none" viewBox="0 0 24 24">
  <rect width="24" height="24" fill="url(#a)" rx="12"/>
  <path fill="#fff" d="m13.781 2.16-1.158 4.094H10.34c-1.326 0-2.423.298-3.293.9-.85.587-1.426 1.431-1.72 2.533-.292 1.089-.17 1.925.366 2.512.54.573 1.483.86 2.825.86h7.166c.634 0 .861.33.685.988-.18.672-.586 1.01-1.219 1.01H2.48a10 10 0 0 0 1.185 2.468h5.94l-1.06 3.86a10 10 0 0 0 2.556.574l1.216-4.436h2.76c1.16 0 2.14-.305 2.938-.921.802-.63 1.353-1.503 1.652-2.62.295-1.102.203-1.94-.277-2.511-.46-.587-1.28-.881-2.455-.881H9.336c-.286 0-.497-.086-.63-.258-.136-.171-.164-.409-.083-.709.161-.601.567-.9 1.215-.9h11.61a10 10 0 0 0-1.264-2.47h-4.846l.933-3.296a10 10 0 0 0-2.49-.797Z"/>
  <defs>
    <linearGradient id="a" x1="-10" x2="29.5" y1="22" y2="2" gradientUnits="userSpaceOnUse">
      <stop stop-color="#020617"/>
      <stop offset=".333" stop-color="#8900C9"/>
      <stop offset=".667" stop-color="#FF3D00"/>
      <stop offset="1" stop-color="#fff"/>
    </linearGradient>
  </defs>
</svg>
